<?xml version="1.0" standalone="no"?>
<!DOCTYPE svg PUBLIC "-//W3C//DTD SVG 20010904//EN"
 "http://www.w3.org/TR/2001/REC-SVG-20010904/DTD/svg10.dtd">
<svg version="1.0" xmlns="http://www.w3.org/2000/svg"
 width="400.000000pt" height="400.000000pt" viewBox="0 0 400.000000 400.000000"
 preserveAspectRatio="xMidYMid meet">

<g transform="translate(0.000000,400.000000) scale(0.100000,-0.100000)"
fill="#000000" stroke="none">
<path d="M1740 3455 c-127 -20 -263 -60 -322 -94 -176 -103 -217 -135 -262
-205 -73 -115 -69 -82 -67 -485 1 -200 4 -368 7 -372 3 -5 -9 -6 -25 -3 -43 9
-78 -17 -87 -61 -3 -19 -10 -37 -14 -40 -15 -9 0 -235 19 -304 22 -76 74 -185
104 -218 11 -13 30 -23 42 -23 17 0 24 -9 33 -42 5 -24 20 -77 31 -118 15 -51
23 -119 28 -213 5 -126 4 -137 -12 -137 -9 0 -54 -11 -99 -24 -66 -20 -111
-25 -241 -29 -158 -5 -255 -20 -255 -39 0 -10 10 -9 85 11 25 7 89 9 175 5
127 -6 141 -4 228 21 52 15 97 24 100 20 9 -9 -44 -55 -63 -55 -28 0 -84 -85
-108 -165 -34 -111 -47 -168 -47 -210 0 -32 3 -36 23 -33 17 2 23 10 25 38 5
63 34 192 52 235 25 59 77 114 125 135 37 16 42 23 52 67 7 27 9 76 6 109 l-5
59 32 -50 c59 -91 184 -198 285 -242 71 -32 162 -66 223 -85 19 -5 55 -19 80
-30 66 -28 149 -47 246 -54 107 -9 206 14 276 62 27 19 52 34 56 34 14 0 -9
-53 -49 -115 -23 -37 -56 -88 -74 -116 l-32 -49 29 0 c24 0 33 7 50 41 28 54
87 146 99 154 6 3 13 26 17 50 3 25 10 47 14 50 4 2 24 -14 46 -36 21 -23 62
-56 90 -74 28 -18 75 -58 104 -89 66 -69 111 -98 147 -94 27 3 27 4 -19 31
-25 15 -68 53 -93 83 -26 30 -70 70 -99 88 -28 19 -72 56 -98 82 l-47 49 50
60 c64 76 117 157 125 192 4 16 13 37 20 48 21 32 44 159 44 240 0 50 6 88 19
118 11 25 22 70 26 101 7 52 10 58 54 89 39 29 49 43 70 103 13 38 25 98 28
134 5 59 8 66 27 65 30 0 32 19 2 23 -14 2 -28 11 -31 21 -6 20 -37 37 -88 46
l-34 7 -6 198 c-3 131 -9 206 -18 221 -7 13 -22 52 -35 87 l-22 62 20 26 c45
56 85 221 73 294 -14 83 -167 184 -395 260 -47 16 -129 45 -183 64 l-99 36
-191 -1 c-106 -1 -226 -7 -267 -14z m515 -31 c55 -19 143 -50 195 -69 91 -32
259 -105 283 -125 7 -5 31 -25 55 -46 l42 -36 0 -86 c0 -62 -6 -101 -21 -143
-30 -81 -38 -86 -89 -54 -80 50 -115 67 -168 81 -194 51 -367 67 -637 60 -239
-6 -362 -17 -420 -40 -22 -8 -51 -15 -65 -16 -14 0 -38 -7 -55 -16 -98 -54
-177 -84 -222 -84 -21 0 -23 5 -23 54 0 72 16 151 41 204 28 57 103 133 164
165 211 111 375 165 510 168 33 0 71 5 85 9 14 4 70 8 125 9 91 1 109 -3 200
-35z m-143 -449 c40 -4 111 -13 157 -21 46 -8 105 -14 131 -14 50 0 140 -26
140 -41 0 -5 11 -9 24 -9 13 0 34 -8 47 -18 13 -10 39 -24 58 -32 39 -15 87
-77 96 -123 4 -18 16 -46 26 -64 14 -23 21 -57 24 -130 3 -54 7 -120 10 -148
l4 -50 -22 28 c-29 34 -66 35 -97 2 -13 -13 -44 -32 -69 -41 -117 -43 -161
-66 -150 -80 9 -11 8 -14 -4 -14 -9 0 -30 -12 -47 -26 -27 -23 -34 -25 -56
-15 -31 14 -84 14 -121 0 -20 -7 -29 -7 -31 1 -2 6 -18 20 -36 31 -28 17 -29
19 -8 19 61 0 12 79 -78 125 -61 31 -261 85 -313 85 -79 -1 -163 -25 -212 -61
-91 -67 -91 -67 -79 -78 7 -8 34 -8 93 0 45 6 85 8 88 5 4 -3 -2 -6 -13 -6
-33 0 -94 -26 -108 -45 -12 -17 -16 -17 -82 -2 -94 22 -217 45 -285 53 l-56 6
-6 250 c-4 138 -4 255 -1 260 3 4 26 8 52 8 58 0 157 30 215 63 68 40 197 69
347 78 74 5 142 10 150 12 22 4 127 0 212 -8z m-142 -591 c106 -27 200 -82
200 -116 0 -2 -57 11 -127 29 -112 28 -144 32 -258 32 -71 0 -150 -4 -175 -9
-25 -4 -47 -6 -49 -4 -7 6 60 63 89 76 14 6 57 16 95 23 56 9 79 9 115 -2 25
-7 74 -20 110 -29z m818 -59 c13 -26 17 -47 12 -50 -11 -7 -252 -27 -257 -21
-4 4 19 13 108 46 31 11 66 31 79 45 13 14 26 25 30 25 3 0 16 -20 28 -45z
m-813 -30 c28 -8 37 -13 20 -10 -16 2 -86 9 -155 15 -69 6 -129 13 -135 16
-26 12 226 -7 270 -21z m20 -26 c61 -11 143 -45 180 -74 39 -31 14 -178 -46
-264 -76 -111 -160 -138 -339 -111 -100 16 -104 17 -142 55 -56 56 -71 118
-58 240 6 55 15 102 20 103 6 2 10 9 10 17 0 18 25 36 63 46 40 10 231 3 312
-12z m-885 -34 c0 -11 3 -31 7 -44 5 -22 4 -22 -17 -11 -31 17 -67 -4 -79 -44
l-9 -31 -1 35 c-1 39 16 109 30 126 15 19 69 -6 69 -31z m153 31 c41 -8 93
-23 114 -34 21 -11 66 -22 101 -25 35 -3 66 -8 70 -11 3 -4 5 -52 4 -107 -2
-111 8 -145 59 -210 42 -53 100 -70 265 -76 148 -6 173 1 243 66 50 46 103
148 109 212 7 75 58 105 140 83 21 -6 22 -11 22 -115 0 -129 10 -158 72 -215
62 -57 102 -69 231 -68 59 1 107 -1 107 -5 -1 -20 -31 -116 -43 -134 -8 -13
-15 -52 -16 -97 -3 -138 -18 -198 -72 -307 -60 -121 -131 -204 -218 -253 -33
-19 -63 -42 -66 -51 -10 -29 -150 -79 -223 -79 -56 0 -150 23 -208 50 -22 11
-74 29 -115 40 -87 23 -200 68 -266 107 -42 24 -149 109 -174 138 -40 46 -110
169 -127 223 -12 37 -33 105 -48 151 -34 106 -44 184 -50 391 -2 91 -9 195
-14 232 -14 96 -13 108 9 108 11 0 53 -6 94 -14z m1567 -16 c0 -19 -6 -20
-142 -19 -106 1 -131 4 -98 10 25 4 74 8 110 9 52 2 109 10 128 19 1 0 2 -8 2
-19z m-15 -57 c-13 -46 -10 -183 5 -260 24 -124 -2 -151 -147 -152 -92 -1
-142 19 -186 72 -50 61 -57 80 -57 143 0 53 1 56 18 42 29 -26 81 -38 159 -38
88 0 108 9 128 57 15 36 15 38 -13 66 -36 36 -88 44 -176 27 -58 -11 -68 -16
-87 -46 -11 -19 -23 -34 -25 -34 -2 0 -4 15 -4 34 0 38 38 92 74 106 12 5 88
9 170 9 l148 1 -7 -27z m109 -3 c38 -14 33 -33 -6 -25 -55 11 -68 16 -68 26 0
12 42 12 74 -1z m-6 -42 c30 -9 32 -12 32 -57 0 -69 -16 -143 -42 -198 -32
-65 -45 -65 -51 -1 -2 29 -10 92 -17 139 -7 47 -10 97 -7 111 7 28 12 28 85 6z
m-1828 -47 c0 -21 8 -43 20 -56 16 -17 22 -41 27 -103 6 -85 0 -98 -29 -64
-28 30 -49 95 -55 162 -5 71 11 136 27 110 6 -8 10 -30 10 -49z m1588 29 c38
-23 42 -55 11 -94 -18 -23 -27 -26 -77 -25 -31 1 -46 4 -32 6 13 3 30 12 37
21 17 23 16 67 -2 82 -40 33 11 42 63 10z m-74 -16 c24 -24 20 -63 -8 -75 -50
-23 -109 36 -76 77 16 19 65 18 84 -2z m-94 -76 c0 -4 -7 -5 -15 -2 -8 4 -15
16 -15 28 1 21 1 21 15 2 8 -11 15 -23 15 -28z m-1436 -174 c10 -14 28 -30 40
-36 16 -7 26 -22 30 -47 8 -52 7 -101 -2 -101 -26 0 -78 95 -108 197 -31 108
-31 146 0 70 13 -31 31 -69 40 -83z"/>
<path d="M1800 2174 c-59 -11 -70 -15 -89 -35 -11 -12 -17 -27 -14 -35 3 -8
33 -31 66 -51 56 -34 69 -37 133 -37 45 0 78 5 88 13 8 7 39 16 67 20 l51 6
-31 42 c-46 64 -69 75 -163 78 -46 2 -94 1 -108 -1z m40 -11 c-22 -8 -40 -34
-40 -59 0 -24 24 -54 43 -54 6 0 1 7 -11 16 -25 17 -29 56 -8 73 8 7 34 11 58
9 42 -3 43 -4 43 -37 0 -33 -8 -42 -50 -56 -27 -10 -2 -19 29 -11 23 6 46 43
46 76 0 10 -10 26 -22 35 -23 16 -23 16 7 9 45 -10 62 -21 90 -58 32 -41 31
-46 -2 -46 -16 0 -41 -7 -57 -15 -45 -24 -121 -19 -175 10 -59 32 -74 54 -55
80 12 16 62 32 104 33 13 0 13 0 0 -5z"/>
<path d="M1844 2126 c-10 -26 4 -48 28 -44 17 2 23 10 23 28 0 18 -6 26 -23
28 -13 2 -25 -3 -28 -12z"/>
<path d="M2380 1816 c0 -10 46 -82 62 -98 20 -20 33 -78 24 -113 -5 -20 -13
-25 -36 -25 -16 0 -41 -5 -56 -10 -23 -9 -36 -6 -81 17 -49 24 -58 26 -96 16
-26 -7 -43 -8 -45 -2 -2 5 -11 16 -19 25 -15 15 -12 43 14 110 3 9 -2 14 -16
14 -26 0 -51 -51 -51 -106 0 -60 57 -90 123 -65 19 7 35 4 73 -15 33 -17 59
-24 79 -20 17 3 54 9 83 14 30 5 58 15 63 23 15 22 3 119 -18 143 -11 11 -30
38 -44 58 -13 21 -32 38 -41 38 -10 0 -18 -2 -18 -4z"/>
<path d="M1865 1360 c-3 -6 6 -15 22 -20 15 -6 35 -13 43 -17 17 -7 184 -20
385 -29 129 -6 215 5 215 26 0 13 -59 12 -136 -2 -49 -9 -76 -9 -116 1 -29 6
-102 15 -163 18 -60 3 -127 12 -149 20 -46 15 -92 17 -101 3z"/>
<path d="M2535 2100 c-17 -19 -17 -22 -3 -37 30 -29 74 10 48 42 -16 20 -23
19 -45 -5z"/>
</g>
</svg>
