<?xml version="1.0" encoding="UTF-8" standalone="no" ?>
<!DOCTYPE svg PUBLIC "-//W3C//DTD SVG 1.1//EN" "http://www.w3.org/Graphics/SVG/1.1/DTD/svg11.dtd">
<svg xmlns="http://www.w3.org/2000/svg" xmlns:xlink="http://www.w3.org/1999/xlink" version="1.1" width="250" height="250" viewBox="0 0 250 250" xml:space="preserve">
<desc>Created with Fabric.js 5.2.4</desc>
<defs>
</defs>
<rect x="0" y="0" width="100%" height="100%" fill="transparent"></rect>
<g transform="matrix(1 0 0 1 125 125)" id="0a7e6d20-a8c0-4e4c-83c1-cf5d4d266ed4"  >
<rect style="stroke: none; stroke-width: 1; stroke-dasharray: none; stroke-linecap: butt; stroke-dashoffset: 0; stroke-linejoin: miter; stroke-miterlimit: 4; fill: rgb(245,245,245); fill-rule: nonzero; opacity: 1;" vector-effect="non-scaling-stroke"  x="-125" y="-125" rx="0" ry="0" width="250" height="250" />
</g>
<g transform="matrix(Infinity NaN NaN Infinity 0 0)" id="03839071-0513-4bf5-8345-ac8b54f3d222"  >
</g>
<g transform="matrix(0.46 0 0 0.46 118 125)"  >
<g style="opacity: 1;" vector-effect="non-scaling-stroke"   >
		<g transform="matrix(0.13 0 0 -0.13 0 0)"  >
<path style="stroke: none; stroke-width: 1; stroke-dasharray: none; stroke-linecap: butt; stroke-dashoffset: 0; stroke-linejoin: miter; stroke-miterlimit: 4; fill: rgb(0,0,0); fill-rule: nonzero; opacity: 1;" vector-effect="non-scaling-stroke"  transform=" translate(-1828.76, -2055)" d="M 1740 3455 C 1613 3435 1477 3395 1418 3361 C 1242 3258 1201 3226 1156 3156 C 1083 3041 1087 3074 1089 2671 C 1090 2471 1093 2303 1096 2299 C 1099 2294 1087 2293 1071 2296 C 1028 2305 993 2279 984 2235 C 981 2216 974 2198 970 2195 C 955 2186 970 1960 989 1891 C 1011 1815 1063 1706 1093 1673 C 1104 1660 1123 1650 1135 1650 C 1152 1650 1159 1641 1168 1608 C 1173 1584 1188 1531 1199 1490 C 1214 1439 1222 1371 1227 1277 C 1232 1151 1231 1140 1215 1140 C 1206 1140 1161 1129 1116 1116 C 1050 1096 1005 1091 875 1087 C 717 1082 620 1067 620 1048 C 620 1038 630 1039 705 1059 C 730 1066 794 1068 880 1064 C 1007 1058 1021 1060 1108 1085 C 1160 1100 1205 1109 1208 1105 C 1217 1096 1164 1050 1145 1050 C 1117 1050 1061 965 1037 885 C 1003 774 990 717 990 675 C 990 643 993 639 1013 642 C 1030 644 1036 652 1038 680 C 1043 743 1072 872 1090 915 C 1115 974 1167 1029 1215 1050 C 1252 1066 1257 1073 1267 1117 C 1274 1144 1276 1193 1273 1226 L 1268 1285 L 1300 1235 C 1359 1144 1484 1037 1585 993 C 1656 961 1747 927 1808 908 C 1827 903 1863 889 1888 878 C 1954 850 2037 831 2134 824 C 2241 815 2340 838 2410 886 C 2437 905 2462 920 2466 920 C 2480 920 2457 867 2417 805 C 2394 768 2361 717 2343 689 L 2311 640 L 2340 640 C 2364 640 2373 647 2390 681 C 2418 735 2477 827 2489 835 C 2495 838 2502 861 2506 885 C 2509 910 2516 932 2520 935 C 2524 937 2544 921 2566 899 C 2587 876 2628 843 2656 825 C 2684 807 2731 767 2760 736 C 2826 667 2871 638 2907 642 C 2934 645 2934 646 2888 673 C 2863 688 2820 726 2795 756 C 2769 786 2725 826 2696 844 C 2668 863 2624 900 2598 926 L 2551 975 L 2601 1035 C 2665 1111 2718 1192 2726 1227 C 2730 1243 2739 1264 2746 1275 C 2767 1307 2790 1434 2790 1515 C 2790 1565 2796 1603 2809 1633 C 2820 1658 2831 1703 2835 1734 C 2842 1786 2845 1792 2889 1823 C 2928 1852 2938 1866 2959 1926 C 2972 1964 2984 2024 2987 2060 C 2992 2119 2995 2126 3014 2125 C 3044 2125 3046 2144 3016 2148 C 3002 2150 2988 2159 2985 2169 C 2979 2189 2948 2206 2897 2215 L 2863 2222 L 2857 2420 C 2854 2551 2848 2626 2839 2641 C 2832 2654 2817 2693 2804 2728 L 2782 2790 L 2802 2816 C 2847 2872 2887 3037 2875 3110 C 2861 3193 2708 3294 2480 3370 C 2433 3386 2351 3415 2297 3434 L 2198 3470 L 2007 3469 C 1901 3468 1781 3462 1740 3455 z M 2255 3424 C 2310 3405 2398 3374 2450 3355 C 2541 3323 2709 3250 2733 3230 C 2740 3225 2764 3205 2788 3184 L 2830 3148 L 2830 3062 C 2830 3000 2824 2961 2809 2919 C 2779 2838 2771 2833 2720 2865 C 2640 2915 2605 2932 2552 2946 C 2358 2997 2185 3013 1915 3006 C 1676 3000 1553 2989 1495 2966 C 1473 2958 1444 2951 1430 2950 C 1416 2950 1392 2943 1375 2934 C 1277 2880 1198 2850 1153 2850 C 1132 2850 1130 2855 1130 2904 C 1130 2976 1146 3055 1171 3108 C 1199 3165 1274 3241 1335 3273 C 1546 3384 1710 3438 1845 3441 C 1878 3441 1916 3446 1930 3450 C 1944 3454 2000 3458 2055 3459 C 2146 3460 2164 3456 2255 3424 z M 2112 2975 C 2152 2971 2223 2962 2269 2954 C 2315 2946 2374 2940 2400 2940 C 2450 2940 2540 2914 2540 2899 C 2540 2894 2551 2890 2564 2890 C 2577 2890 2598 2882 2611 2872 C 2624 2862 2650 2848 2669 2840 C 2708 2825 2756 2763 2765 2717 C 2769 2699 2781 2671 2791 2653 C 2805 2630 2812 2596 2815 2523 C 2818 2469 2822 2403 2825 2375 L 2829 2325 L 2807 2353 C 2778 2387 2741 2388 2710 2355 C 2697 2342 2666 2323 2641 2314 C 2524 2271 2480 2248 2491 2234 C 2500 2223 2499 2220 2487 2220 C 2478 2220 2457 2208 2440 2194 C 2413 2171 2406 2169 2384 2179 C 2353 2193 2300 2193 2263 2179 C 2243 2172 2234 2172 2232 2180 C 2230 2186 2214 2200 2196 2211 C 2168 2228 2167 2230 2188 2230 C 2249 2230 2200 2309 2110 2355 C 2049 2386 1849 2440 1797 2440 C 1718 2439 1634 2415 1585 2379 C 1494 2312 1494 2312 1506 2301 C 1513 2293 1540 2293 1599 2301 C 1644 2307 1684 2309 1687 2306 C 1691 2303 1685 2300 1674 2300 C 1641 2300 1580 2274 1566 2255 C 1554 2238 1550 2238 1484 2253 C 1390 2275 1267 2298 1199 2306 L 1143 2312 L 1137 2562 C 1133 2700 1133 2817 1136 2822 C 1139 2826 1162 2830 1188 2830 C 1246 2830 1345 2860 1403 2893 C 1471 2933 1600 2962 1750 2971 C 1824 2976 1892 2981 1900 2983 C 1922 2987 2027 2983 2112 2975 z M 1970 2384 C 2076 2357 2170 2302 2170 2268 C 2170 2266 2113 2279 2043 2297 C 1931 2325 1899 2329 1785 2329 C 1714 2329 1635 2325 1610 2320 C 1585 2316 1563 2314 1561 2316 C 1554 2322 1621 2379 1650 2392 C 1664 2398 1707 2408 1745 2415 C 1801 2424 1824 2424 1860 2413 C 1885 2406 1934 2393 1970 2384 z M 2788 2325 C 2801 2299 2805 2278 2800 2275 C 2789 2268 2548 2248 2543 2254 C 2539 2258 2562 2267 2651 2300 C 2682 2311 2717 2331 2730 2345 C 2743 2359 2756 2370 2760 2370 C 2763 2370 2776 2350 2788 2325 z M 1975 2295 C 2003 2287 2012 2282 1995 2285 C 1979 2287 1909 2294 1840 2300 C 1771 2306 1711 2313 1705 2316 C 1679 2328 1931 2309 1975 2295 z M 1995 2269 C 2056 2258 2138 2224 2175 2195 C 2214 2164 2189 2017 2129 1931 C 2053 1820 1969 1793 1790 1820 C 1690 1836 1686 1837 1648 1875 C 1592 1931 1577 1993 1590 2115 C 1596 2170 1605 2217 1610 2218 C 1616 2220 1620 2227 1620 2235 C 1620 2253 1645 2271 1683 2281 C 1723 2291 1914 2284 1995 2269 z M 1110 2235 C 1110 2224 1113 2204 1117 2191 C 1122 2169 1121 2169 1100 2180 C 1069 2197 1033 2176 1021 2136 L 1012 2105 L 1011 2140 C 1010 2179 1027 2249 1041 2266 C 1056 2285 1110 2260 1110 2235 z M 1263 2266 C 1304 2258 1356 2243 1377 2232 C 1398 2221 1443 2210 1478 2207 C 1513 2204 1544 2199 1548 2196 C 1551 2192 1553 2144 1552 2089 C 1550 1978 1560 1944 1611 1879 C 1653 1826 1711 1809 1876 1803 C 2024 1797 2049 1804 2119 1869 C 2169 1915 2222 2017 2228 2081 C 2235 2156 2286 2186 2368 2164 C 2389 2158 2390 2153 2390 2049 C 2390 1920 2400 1891 2462 1834 C 2524 1777 2564 1765 2693 1766 C 2752 1767 2800 1765 2800 1761 C 2799 1741 2769 1645 2757 1627 C 2749 1614 2742 1575 2741 1530 C 2738 1392 2723 1332 2669 1223 C 2609 1102 2538 1019 2451 970 C 2418 951 2388 928 2385 919 C 2375 890 2235 840 2162 840 C 2106 840 2012 863 1954 890 C 1932 901 1880 919 1839 930 C 1752 953 1639 998 1573 1037 C 1531 1061 1424 1146 1399 1175 C 1359 1221 1289 1344 1272 1398 C 1260 1435 1239 1503 1224 1549 C 1190 1655 1180 1733 1174 1940 C 1172 2031 1165 2135 1160 2172 C 1146 2268 1147 2280 1169 2280 C 1180 2280 1222 2274 1263 2266 z M 2830 2250 C 2830 2231 2824 2230 2688 2231 C 2582 2232 2557 2235 2590 2241 C 2615 2245 2664 2249 2700 2250 C 2752 2252 2809 2260 2828 2269 C 2829 2269 2830 2261 2830 2250 z M 2815 2193 C 2802 2147 2805 2010 2820 1933 C 2844 1809 2818 1782 2673 1781 C 2581 1780 2531 1800 2487 1853 C 2437 1914 2430 1933 2430 1996 C 2430 2049 2431 2052 2448 2038 C 2477 2012 2529 2000 2607 2000 C 2695 2000 2715 2009 2735 2057 C 2750 2093 2750 2095 2722 2123 C 2686 2159 2634 2167 2546 2150 C 2488 2139 2478 2134 2459 2104 C 2448 2085 2436 2070 2434 2070 C 2432 2070 2430 2085 2430 2104 C 2430 2142 2468 2196 2504 2210 C 2516 2215 2592 2219 2674 2219 L 2822 2220 L 2815 2193 z M 2924 2190 C 2962 2176 2957 2157 2918 2165 C 2863 2176 2850 2181 2850 2191 C 2850 2203 2892 2203 2924 2190 z M 2918 2148 C 2948 2139 2950 2136 2950 2091 C 2950 2022 2934 1948 2908 1893 C 2876 1828 2863 1828 2857 1892 C 2855 1921 2847 1984 2840 2031 C 2833 2078 2830 2128 2833 2142 C 2840 2170 2845 2170 2918 2148 z M 1090 2101 C 1090 2080 1098 2058 1110 2045 C 1126 2028 1132 2004 1137 1942 C 1143 1857 1137 1844 1108 1878 C 1080 1908 1059 1973 1053 2040 C 1048 2111 1064 2176 1080 2150 C 1086 2142 1090 2120 1090 2101 z M 2678 2130 C 2716 2107 2720 2075 2689 2036 C 2671 2013 2662 2010 2612 2011 C 2581 2012 2566 2015 2580 2017 C 2593 2020 2610 2029 2617 2038 C 2634 2061 2633 2105 2615 2120 C 2575 2153 2626 2162 2678 2130 z M 2604 2114 C 2628 2090 2624 2051 2596 2039 C 2546 2016 2487 2075 2520 2116 C 2536 2135 2585 2134 2604 2114 z M 2510 2038 C 2510 2034 2503 2033 2495 2036 C 2487 2040 2480 2052 2480 2064 C 2481 2085 2481 2085 2495 2066 C 2503 2055 2510 2043 2510 2038 z M 1074 1864 C 1084 1850 1102 1834 1114 1828 C 1130 1821 1140 1806 1144 1781 C 1152 1729 1151 1680 1142 1680 C 1116 1680 1064 1775 1034 1877 C 1003 1985 1003 2023 1034 1947 C 1047 1916 1065 1878 1074 1864 z" stroke-linecap="round" />
</g>
		<g transform="matrix(0.13 0 0 -0.13 9.38 -5.47)"  >
<path style="stroke: none; stroke-width: 1; stroke-dasharray: none; stroke-linecap: butt; stroke-dashoffset: 0; stroke-linejoin: miter; stroke-miterlimit: 4; fill: rgb(0,0,0); fill-rule: nonzero; opacity: 1;" vector-effect="non-scaling-stroke"  transform=" translate(-1899.12, -2096.05)" d="M 1800 2174 C 1741 2163 1730 2159 1711 2139 C 1700 2127 1694 2112 1697 2104 C 1700 2096 1730 2073 1763 2053 C 1819 2019 1832 2016 1896 2016 C 1941 2016 1974 2021 1984 2029 C 1992 2036 2023 2045 2051 2049 L 2102 2055 L 2071 2097 C 2025 2161 2002 2172 1908 2175 C 1862 2177 1814 2176 1800 2174 z M 1840 2163 C 1818 2155 1800 2129 1800 2104 C 1800 2080 1824 2050 1843 2050 C 1849 2050 1844 2057 1832 2066 C 1807 2083 1803 2122 1824 2139 C 1832 2146 1858 2150 1882 2148 C 1924 2145 1925 2144 1925 2111 C 1925 2078 1917 2069 1875 2055 C 1848 2045 1873 2036 1904 2044 C 1927 2050 1950 2087 1950 2120 C 1950 2130 1940 2146 1928 2155 C 1905 2171 1905 2171 1935 2164 C 1980 2154 1997 2143 2025 2106 C 2057 2065 2056 2060 2023 2060 C 2007 2060 1982 2053 1966 2045 C 1921 2021 1845 2026 1791 2055 C 1732 2087 1717 2109 1736 2135 C 1748 2151 1798 2167 1840 2168 C 1853 2168 1853 2168 1840 2163 z" stroke-linecap="round" />
</g>
		<g transform="matrix(0.13 0 0 -0.13 5.21 -7.33)"  >
<path style="stroke: none; stroke-width: 1; stroke-dasharray: none; stroke-linecap: butt; stroke-dashoffset: 0; stroke-linejoin: miter; stroke-miterlimit: 4; fill: rgb(0,0,0); fill-rule: nonzero; opacity: 1;" vector-effect="non-scaling-stroke"  transform=" translate(-1867.87, -2109.98)" d="M 1844 2126 C 1834 2100 1848 2078 1872 2082 C 1889 2084 1895 2092 1895 2110 C 1895 2128 1889 2136 1872 2138 C 1859 2140 1847 2135 1844 2126 z" stroke-linecap="round" />
</g>
		<g transform="matrix(0.13 0 0 -0.13 62.01 49.81)"  >
<path style="stroke: none; stroke-width: 1; stroke-dasharray: none; stroke-linecap: butt; stroke-dashoffset: 0; stroke-linejoin: miter; stroke-miterlimit: 4; fill: rgb(0,0,0); fill-rule: nonzero; opacity: 1;" vector-effect="non-scaling-stroke"  transform=" translate(-2293.85, -1681.45)" d="M 2380 1816 C 2380 1806 2426 1734 2442 1718 C 2462 1698 2475 1640 2466 1605 C 2461 1585 2453 1580 2430 1580 C 2414 1580 2389 1575 2374 1570 C 2351 1561 2338 1564 2293 1587 C 2244 1611 2235 1613 2197 1603 C 2171 1596 2154 1595 2152 1601 C 2150 1606 2141 1617 2133 1626 C 2118 1641 2121 1669 2147 1736 C 2150 1745 2145 1750 2131 1750 C 2105 1750 2080 1699 2080 1644 C 2080 1584 2137 1554 2203 1579 C 2222 1586 2238 1583 2276 1564 C 2309 1547 2335 1540 2355 1544 C 2372 1547 2409 1553 2438 1558 C 2468 1563 2496 1573 2501 1581 C 2516 1603 2504 1700 2483 1724 C 2472 1735 2453 1762 2439 1782 C 2426 1803 2407 1820 2398 1820 C 2388 1820 2380 1818 2380 1816 z" stroke-linecap="round" />
</g>
		<g transform="matrix(0.13 0 0 -0.13 49.13 96.54)"  >
<path style="stroke: none; stroke-width: 1; stroke-dasharray: none; stroke-linecap: butt; stroke-dashoffset: 0; stroke-linejoin: miter; stroke-miterlimit: 4; fill: rgb(0,0,0); fill-rule: nonzero; opacity: 1;" vector-effect="non-scaling-stroke"  transform=" translate(-2197.21, -1330.91)" d="M 1865 1360 C 1862 1354 1871 1345 1887 1340 C 1902 1334 1922 1327 1930 1323 C 1947 1316 2114 1303 2315 1294 C 2444 1288 2530 1299 2530 1320 C 2530 1333 2471 1332 2394 1318 C 2345 1309 2318 1309 2278 1319 C 2249 1325 2176 1334 2115 1337 C 2055 1340 1988 1349 1966 1357 C 1920 1372 1874 1374 1865 1360 z" stroke-linecap="round" />
</g>
		<g transform="matrix(0.13 0 0 -0.13 96.81 -4.13)"  >
<path style="stroke: none; stroke-width: 1; stroke-dasharray: none; stroke-linecap: butt; stroke-dashoffset: 0; stroke-linejoin: miter; stroke-miterlimit: 4; fill: rgb(0,0,0); fill-rule: nonzero; opacity: 1;" vector-effect="non-scaling-stroke"  transform=" translate(-2554.87, -2085.95)" d="M 2535 2100 C 2518 2081 2518 2078 2532 2063 C 2562 2034 2606 2073 2580 2105 C 2564 2125 2557 2124 2535 2100 z" stroke-linecap="round" />
</g>
</g>
</g>
<g transform="matrix(NaN NaN NaN NaN 0 0)"  >
<g style=""   >
</g>
</g>
</svg>