<?xml version="1.0" encoding="utf-8"?>
<!DOCTYPE svg PUBLIC "-//W3C//DTD SVG 20010904//EN" "http://www.w3.org/TR/2001/REC-SVG-20010904/DTD/svg10.dtd">
<svg version="1.0" xmlns="http://www.w3.org/2000/svg" width="1026pt" height="1026pt" viewBox="0 0 1026 1026" preserveAspectRatio="xMidYMid meet">
<g fill="#000000FF">
<path d="M 1.00 949.92 L 1.00 874.84 L 4.56 868.77 C 11.43 857.04 22.11 844.31 35.00 832.49 C 62.15 807.58 89.68 788.03 130.00 765.01 C 151.36 752.82 169.97 741.82 213.12 715.89 C 227.21 707.43 242.26 698.48 246.56 696.00 C 250.87 693.52 257.11 688.99 260.44 685.92 C 275.00 672.52 327.27 640.58 337.50 638.84 C 338.77 638.62 340.48 636.50 342.20 633.00 C 345.49 626.30 347.00 619.76 347.00 612.20 C 347.00 607.31 346.44 605.58 343.03 600.05 C 332.03 582.17 325.10 557.44 321.02 521.50 C 319.35 506.81 319.70 507.60 314.30 506.16 C 309.59 504.90 304.16 501.45 300.72 497.53 C 294.40 490.31 289.49 474.56 283.57 442.50 C 275.71 399.97 273.61 372.23 277.39 361.16 C 280.46 352.21 287.29 346.00 294.08 346.00 C 297.26 346.00 297.26 345.99 296.64 341.75 C 296.30 339.41 293.55 317.10 290.51 292.16 C 284.37 241.66 283.83 229.71 286.88 212.00 C 288.63 201.82 288.63 201.46 286.84 200.19 C 279.86 195.24 293.54 161.67 312.71 136.73 C 315.15 133.55 320.16 127.70 323.84 123.73 C 333.64 113.14 335.34 110.51 333.89 108.20 C 332.03 105.21 333.52 101.84 339.22 96.13 C 351.75 83.58 379.18 69.31 405.75 61.52 C 411.12 59.94 412.00 59.35 412.00 57.34 C 412.00 54.10 414.83 51.58 421.14 49.22 C 432.43 45.00 452.18 41.95 477.95 40.43 C 488.29 39.82 489.58 39.53 491.21 37.46 C 496.38 30.89 529.16 34.96 570.00 47.25 C 577.38 49.47 582.62 50.42 587.63 50.45 C 594.04 50.50 595.59 50.94 603.13 54.85 C 614.81 60.91 623.72 68.01 636.50 81.43 C 642.55 87.78 647.88 92.98 648.34 92.99 C 648.80 92.99 649.96 92.03 650.92 90.85 C 653.71 87.41 657.46 89.14 665.98 97.82 C 674.50 106.50 679.10 114.41 684.47 129.63 C 687.49 138.18 688.51 139.93 692.22 142.91 C 694.57 144.80 699.94 149.79 704.15 153.99 C 710.57 160.40 712.62 163.33 716.84 172.07 C 722.01 182.80 727.00 198.03 727.00 203.09 C 727.00 204.99 726.21 206.47 724.65 207.49 L 722.31 209.03 L 724.65 217.10 C 729.81 234.94 730.37 249.13 726.52 265.17 C 723.59 277.41 719.03 304.82 715.99 328.50 C 714.79 337.85 713.74 345.93 713.66 346.46 C 713.57 346.98 715.42 347.69 717.77 348.03 C 723.31 348.82 726.96 351.56 729.75 357.02 C 732.66 362.71 732.73 373.00 729.96 385.50 C 727.80 395.26 724.75 418.82 722.97 439.50 C 719.37 481.42 713.63 498.08 700.96 503.37 L 697.42 504.85 L 696.23 516.73 C 691.59 563.14 685.32 585.51 670.93 606.92 C 661.27 621.30 649.44 634.67 635.53 646.91 C 629.64 652.08 624.42 657.40 623.92 658.72 C 621.80 664.29 621.84 664.32 643.25 672.80 C 663.74 680.91 701.70 694.38 725.50 701.98 C 732.65 704.26 744.80 708.15 752.50 710.61 C 774.86 717.76 814.98 738.62 832.87 752.41 C 848.42 764.39 859.36 781.33 871.34 812.00 C 884.41 845.48 890.97 870.85 893.95 899.50 C 894.79 907.59 902.00 1018.76 902.00 1023.64 C 902.00 1024.79 831.27 1025.00 451.50 1025.00 L 1.00 1025.00 L 1.00 949.92ZM 538.24 829.03 C 555.34 825.40 572.87 817.91 582.97 809.93 C 600.88 795.77 614.27 765.16 614.42 738.00 C 614.49 727.05 612.66 713.53 610.99 712.49 C 610.18 712.00 609.11 717.28 606.55 734.32 C 605.75 739.67 604.82 744.48 604.49 745.02 C 603.61 746.44 599.43 746.22 598.17 744.70 C 596.27 742.41 601.26 713.78 608.64 684.66 C 611.13 674.85 613.01 666.69 612.83 666.52 C 612.65 666.36 606.84 670.36 599.93 675.41 C 581.15 689.16 566.80 695.96 550.34 698.93 C 529.26 702.74 495.42 702.11 477.66 697.58 C 461.44 693.44 440.34 682.31 405.00 659.23 C 383.63 645.27 367.19 631.75 358.59 621.07 C 356.40 618.35 355.65 617.94 354.93 619.07 C 354.44 619.86 354.01 621.40 353.99 622.50 C 353.92 626.57 349.10 638.08 344.71 644.69 C 340.26 651.38 334.15 657.62 318.55 671.44 C 308.61 680.25 306.50 684.50 307.49 693.73 C 309.73 714.62 343.75 759.19 377.20 785.04 C 408.52 809.25 447.70 825.56 487.50 830.94 C 498.91 832.48 526.96 831.43 538.24 829.03ZM 545.50 691.58 C 550.45 690.74 556.98 689.33 560.00 688.44 C 573.98 684.32 596.85 669.23 623.64 646.44 C 652.43 621.96 670.70 597.54 678.33 573.36 C 682.72 559.43 687.68 527.70 690.95 492.50 C 691.52 486.45 692.25 479.05 692.58 476.05 L 693.19 470.61 L 687.13 476.22 C 675.18 487.29 653.78 491.80 618.56 490.68 C 579.70 489.45 566.30 482.74 553.04 457.84 C 550.70 453.46 548.62 450.05 548.41 450.26 C 548.19 450.47 548.93 458.67 550.05 468.49 C 551.17 478.30 551.86 486.93 551.58 487.66 C 550.71 489.92 546.07 489.27 545.02 486.75 C 543.63 483.41 541.01 457.75 540.35 441.08 C 539.56 420.83 536.66 414.48 527.33 412.54 C 522.66 411.56 516.43 413.58 514.12 416.82 C 513.04 418.35 509.65 426.01 506.60 433.85 C 490.05 476.28 479.44 486.18 446.50 489.95 C 421.69 492.79 385.02 489.11 371.22 482.39 C 356.37 475.16 347.08 457.48 340.57 424.00 C 337.21 406.74 336.31 404.81 329.58 400.51 C 326.58 398.59 323.43 396.03 322.59 394.82 C 321.74 393.61 320.73 392.94 320.35 393.32 C 318.69 394.98 322.89 465.21 327.00 504.50 C 332.36 555.75 338.65 578.80 353.27 600.71 C 368.80 623.98 388.18 640.21 432.26 666.86 C 464.39 686.28 477.72 691.43 501.00 693.41 C 509.91 694.17 536.69 693.06 545.50 691.58ZM 507.08 613.94 C 500.76 612.81 498.79 611.47 499.20 608.59 C 499.46 606.76 500.13 606.52 504.50 606.66 C 528.19 607.40 535.31 607.30 541.78 606.13 C 549.85 604.67 552.36 605.49 551.80 609.41 C 551.57 610.99 550.28 611.82 546.50 612.81 C 540.14 614.46 514.21 615.21 507.08 613.94ZM 488.00 588.92 C 476.30 587.81 460.80 585.16 454.10 583.13 C 449.26 581.66 448.46 581.06 448.18 578.71 C 447.72 574.73 450.02 574.36 459.94 576.82 C 479.69 581.73 518.51 584.10 545.50 582.05 C 563.96 580.66 573.74 578.99 584.04 575.49 C 588.06 574.12 592.12 573.00 593.07 573.00 C 594.79 573.00 596.00 574.90 596.00 577.62 C 596.00 581.00 578.17 586.11 558.01 588.51 C 544.49 590.12 503.20 590.36 488.00 588.92ZM 520.86 542.67 C 518.31 541.95 513.14 539.51 509.36 537.24 C 500.62 531.98 497.95 531.01 492.18 530.98 C 486.11 530.95 479.91 528.08 476.95 523.93 C 470.68 515.12 476.01 492.58 482.77 499.34 C 484.16 500.73 484.14 501.43 482.55 506.48 C 479.08 517.51 482.34 522.58 493.54 523.59 C 501.76 524.33 505.30 525.67 513.92 531.28 C 519.50 534.91 521.20 535.50 526.96 535.83 C 535.03 536.28 538.68 534.92 546.85 528.37 C 550.60 525.37 555.19 522.83 559.17 521.54 C 565.02 519.66 565.60 519.20 566.77 515.61 C 567.84 512.34 567.79 510.83 566.46 506.11 C 563.59 495.95 563.57 495.27 566.02 494.49 C 572.24 492.52 577.57 509.91 573.64 519.33 C 571.73 523.89 566.98 527.56 561.22 528.95 C 557.91 529.74 554.67 531.57 551.21 534.59 C 548.40 537.06 544.16 539.92 541.80 540.96 C 535.99 543.52 526.63 544.29 520.86 542.67ZM 317.61 491.75 C 315.96 474.07 314.04 448.36 313.40 435.25 C 313.02 427.41 312.41 421.00 312.05 421.00 C 310.60 421.00 307.00 430.32 307.00 434.09 C 307.00 436.31 307.94 440.31 309.09 442.98 C 311.42 448.40 311.34 450.76 308.76 452.38 C 306.29 453.94 303.49 450.83 301.00 443.75 C 297.80 434.63 298.61 426.80 303.51 419.57 C 304.88 417.56 306.00 414.76 306.00 413.35 C 306.00 405.37 299.61 390.07 292.12 380.12 C 288.87 375.80 288.27 374.37 289.07 372.87 C 289.63 371.82 291.15 371.00 292.54 371.00 C 295.57 371.00 302.92 380.43 306.96 389.50 C 308.43 392.80 310.13 396.62 310.75 398.00 C 311.68 400.09 311.88 399.10 311.93 391.91 C 312.00 383.48 311.93 383.24 308.26 378.53 C 304.85 374.16 304.49 373.09 304.15 366.36 C 303.81 359.64 303.52 358.78 300.81 356.50 C 294.40 351.10 287.54 354.91 284.43 365.59 C 281.33 376.27 283.94 402.65 292.54 447.51 C 296.74 469.44 299.57 480.33 302.57 486.13 C 305.71 492.20 313.26 498.99 316.89 499.00 C 318.02 499.00 318.16 497.61 317.61 491.75ZM 703.71 491.08 C 709.39 482.70 711.96 470.81 715.07 438.50 C 716.18 426.95 717.55 414.20 718.11 410.15 C 718.67 406.11 718.92 402.58 718.65 402.32 C 717.88 401.55 714.13 403.89 713.13 405.77 C 712.63 406.72 711.24 412.45 710.04 418.50 C 708.85 424.55 706.75 433.77 705.37 439.00 C 703.35 446.70 699.16 482.81 699.02 493.83 C 698.99 495.98 701.32 494.61 703.71 491.08ZM 458.15 482.17 C 479.13 476.59 487.17 466.87 502.04 429.14 C 509.57 410.06 512.67 407.00 524.49 407.00 C 531.99 407.00 537.66 409.30 540.39 413.47 C 541.32 414.89 544.54 422.39 547.55 430.14 C 558.43 458.12 567.52 472.19 578.25 477.63 C 588.38 482.76 596.77 484.20 619.70 484.74 C 646.95 485.39 663.71 483.15 675.28 477.34 C 688.97 470.46 696.77 454.23 704.04 417.50 C 705.24 411.45 706.83 405.32 707.57 403.87 C 709.15 400.82 714.09 396.42 716.99 395.50 C 718.79 394.93 719.00 393.99 719.00 386.50 C 719.00 376.85 720.14 377.81 706.00 375.51 C 662.01 368.36 587.68 369.97 561.58 378.64 C 558.85 379.55 554.08 381.77 550.99 383.58 C 542.71 388.44 538.05 389.28 521.78 388.85 L 507.50 388.47 L 498.00 383.36 C 485.43 376.60 474.77 374.01 451.50 372.08 C 411.61 368.76 366.28 370.36 335.75 376.17 L 330.00 377.26 L 330.00 385.61 L 330.00 393.96 L 333.92 395.96 C 340.72 399.43 342.41 402.98 346.03 421.50 C 351.40 448.90 357.94 464.73 367.10 472.43 C 377.73 481.37 397.25 485.14 430.00 484.56 C 446.62 484.27 451.95 483.82 458.15 482.17ZM 402.34 478.05 C 382.38 474.91 374.35 471.20 367.53 461.94 C 358.38 449.51 353.51 431.31 353.51 409.50 C 353.50 393.69 354.06 391.89 360.88 385.73 C 368.60 378.75 382.48 376.51 417.50 376.56 C 458.53 376.63 480.18 381.13 490.12 391.67 C 494.81 396.64 496.00 400.47 496.00 410.58 C 496.00 435.39 483.01 462.69 467.09 471.36 C 457.42 476.62 448.47 478.23 427.00 478.56 C 416.27 478.73 405.18 478.50 402.34 478.05ZM 448.78 471.47 C 465.41 468.30 473.52 461.90 481.53 445.62 C 487.33 433.84 490.14 422.96 490.34 411.50 C 490.60 397.04 487.26 392.84 471.76 388.12 C 457.52 383.79 444.35 382.49 415.50 382.59 C 385.94 382.70 375.45 383.92 367.85 388.17 C 360.53 392.26 359.55 394.49 359.18 407.82 C 358.79 421.50 360.94 433.86 365.89 446.50 C 371.71 461.36 377.69 466.74 392.50 470.45 C 406.67 474.01 432.99 474.48 448.78 471.47ZM 426.62 423.02 C 419.60 420.79 415.60 414.19 416.21 405.84 C 416.53 401.40 416.30 400.00 415.28 400.00 C 413.39 400.00 404.29 404.70 399.37 408.22 C 394.62 411.61 390.67 411.69 390.20 408.40 C 389.57 403.96 404.83 394.43 417.25 391.50 C 425.35 389.59 438.00 389.60 445.54 391.52 C 458.53 394.82 474.45 404.87 473.80 409.37 C 473.30 412.88 469.67 412.47 463.33 408.18 C 457.14 404.00 452.85 401.67 449.36 400.60 C 447.30 399.96 447.24 400.17 447.71 406.22 C 448.13 411.64 447.87 412.96 445.85 415.91 C 444.56 417.78 442.31 420.19 440.86 421.27 C 437.85 423.50 430.85 424.36 426.62 423.02ZM 601.00 477.51 C 591.97 475.81 585.98 473.76 580.40 470.49 C 566.98 462.63 554.61 436.85 553.31 414.00 C 552.58 401.27 553.85 396.79 559.88 390.95 C 567.86 383.22 584.01 379.00 613.51 376.95 C 638.48 375.22 664.55 376.70 679.26 380.70 C 686.23 382.60 693.27 388.38 695.18 393.77 C 697.20 399.48 696.68 419.53 694.21 431.00 C 689.32 453.73 680.80 467.77 668.78 472.89 C 659.34 476.91 650.42 478.19 629.00 478.57 C 614.16 478.83 606.43 478.54 601.00 477.51ZM 652.64 471.45 C 672.79 467.93 680.94 459.07 687.61 433.42 C 691.14 419.81 691.59 399.36 688.47 394.04 C 683.43 385.46 670.75 382.78 634.50 382.63 C 601.13 382.49 582.42 385.10 569.04 391.78 C 560.95 395.82 559.56 398.29 559.19 409.32 C 558.64 425.59 566.26 448.20 576.04 459.31 C 585.49 470.05 602.35 474.39 630.77 473.41 C 638.07 473.15 647.91 472.27 652.64 471.45ZM 605.45 421.65 C 598.87 418.66 595.07 411.10 596.31 403.46 L 596.87 400.03 L 591.68 402.63 C 588.83 404.07 584.62 406.76 582.33 408.62 C 577.87 412.23 576.11 412.71 574.20 410.80 C 571.89 408.49 573.04 406.03 578.25 402.14 C 597.45 387.80 622.24 385.05 642.12 395.05 C 651.78 399.91 656.17 403.70 655.80 406.87 C 655.37 410.63 652.51 410.71 647.47 407.09 C 638.80 400.86 623.29 395.03 626.88 399.35 C 627.49 400.09 628.27 402.69 628.60 405.13 C 629.87 414.34 623.32 422.05 613.68 422.69 C 610.67 422.89 607.22 422.45 605.45 421.65ZM 547.65 378.45 C 561.11 371.41 575.49 368.18 602.95 366.05 C 622.80 364.50 661.05 364.75 679.93 366.55 C 688.89 367.41 696.40 367.94 696.61 367.72 C 696.82 367.51 696.55 354.33 696.01 338.42 C 694.36 289.37 687.90 252.50 676.38 226.29 C 672.07 216.49 661.46 201.48 655.27 196.44 C 647.38 190.02 638.77 185.88 632.01 185.27 C 625.44 184.67 611.61 186.33 601.00 188.99 C 592.22 191.20 581.12 191.73 568.40 190.57 C 560.00 189.80 558.69 189.94 551.39 192.37 C 537.73 196.92 530.65 197.97 513.50 197.96 C 496.38 197.96 485.39 196.71 461.53 192.05 C 436.24 187.11 423.86 185.72 410.00 186.28 C 395.61 186.85 389.47 188.55 375.83 195.72 C 364.97 201.42 358.40 207.12 352.56 215.91 C 343.01 230.28 339.86 244.48 340.24 271.51 L 340.49 289.50 L 336.86 299.06 C 329.37 318.76 325.93 334.16 324.51 354.31 L 323.89 363.12 L 327.85 366.98 C 331.58 370.59 332.06 370.77 335.66 369.97 C 343.34 368.24 375.91 365.08 392.50 364.45 C 401.85 364.09 419.13 364.30 430.90 364.92 C 442.66 365.54 452.47 365.87 452.68 365.65 C 453.14 365.19 447.87 363.41 428.00 357.34 C 405.62 350.50 397.95 350.45 375.72 357.02 C 370.34 358.61 365.28 359.66 364.47 359.35 C 361.84 358.34 362.77 353.61 366.25 350.26 C 371.13 345.57 382.50 339.28 391.50 336.31 C 406.10 331.49 430.73 333.09 456.53 340.52 C 472.13 345.02 480.26 349.74 483.62 356.24 C 485.76 360.37 484.69 365.73 481.45 367.21 C 480.10 367.82 479.00 368.63 479.00 369.00 C 479.00 369.37 481.81 370.45 485.25 371.40 C 488.69 372.35 494.86 374.96 498.97 377.21 C 509.03 382.71 509.52 382.82 525.23 382.91 L 538.95 383.00 L 547.65 378.45ZM 567.00 366.35 C 560.28 363.63 558.98 356.37 564.16 350.47 C 567.97 346.13 573.72 343.11 584.83 339.61 C 607.74 332.39 637.10 329.13 650.00 332.37 C 665.10 336.17 683.64 348.47 682.83 354.15 C 682.34 357.62 679.42 357.56 668.30 353.88 C 659.25 350.88 657.47 350.63 645.00 350.58 L 631.50 350.53 L 607.50 358.35 C 588.40 364.58 581.97 366.26 576.00 366.57 C 571.88 366.78 567.83 366.69 567.00 366.35Z"/></g>
</svg>
